mtllib materials.mtl
v -1.69 -5.960464E-07 1.689999
v 0.3380003 -0.3379997 -0.3379987
v -0.337999 3.576279E-07 -1.689999
v 0.3380004 0.3379997 -0.3379984
v 1.69 -2.264977E-06 0.3380018
vn -0.2661228 -0.9580434 -0.1064495
vn 0.1064499 0.958043 0.2661242
vn 0.8944275 1.423334E-07 -0.4472131
vn -0.266123 0.9580435 -0.106449
vn 0.1064482 -0.9580438 0.2661219
vn 0.447214 3.17662E-07 -0.894427
vt 0.07135542 -0.1750506
vt -0.01437823 0.100717
vt -0.1692479 0.09813979
vt -0.07074843 -0.2004112
vt 0.02059605 0.07354908
vt -0.1066602 0.1618502
vt -0.1631894 -0.1482195
vt -0.008368984 -0.1435414
vt -0.0251062 -0.07804623
vt -0.06665595 -0.2052909
vt 0.2209263 0.01791173
vt 0.06928983 0.04949689
vt 0.06300661 -0.1844743
vt 0.001652878 0.1743553
vt -0.09765977 0.05549312
vt 0.1189467 -0.06872289
vt 0.176048 0.0752586
vt 0.06306066 -0.03069002
o group905816428
g mesh905816428
usemtl mat5
f 3/3/1 2/2/1 1/1/1
f 5/6/2 4/5/2 1/4/2
f 4/9/3 2/8/3 3/7/3
f 4/12/4 3/11/4 1/10/4
f 2/15/5 5/14/5 1/13/5
f 4/18/6 5/17/6 2/16/6
